#!OML:ASF I:\Actors\actors\Patient Classification 2\Patient 1\Session 1\actor1.ASF
:FULLY-SPECIFIED
:DEGREES
211
root -0.731054 18.7164 5.76804 1.5034 -0.29381 -2.48659
lowerback 6.94749 1.37497 0.711002
upperback -2.75692 1.81644 -1.44241
thorax -6.71536 0.82825 -2.13837
lowerneck -10.9891 -8.07662 -4.65603
upperneck 8.74955 -11.1532 8.50059
head 5.17478 -5.10845 2.47731
rclavicle 8.7838e-015 -4.77083e-015
rhumerus 11.4191 -12.5063 -34.9727
rradius 89.2276
rwrist 3.4118
rhand -24.752 -40.1773
rfingers 7.12502
rthumb 1.75109 -70.1499
lclavicle 8.7838e-015 -4.77083e-015
lhumerus -46.5388 -2.56882 86.1169
lradius 44.3775
lwrist -5.6145
lhand 1.5477 -23.0386
lfingers 7.12502
lthumb 27.0719 5.0406
rfemur 0 0 0
rtibia 0
rfoot 0 0
rtoes 0
lfemur -5.11859 -6.23775 -11.367
ltibia 21.7195
lfoot -21.5328 12.5248
ltoes -55.4622
212
root -0.726898 18.7175 5.76188 1.50484 -0.232642 -2.54275
lowerback 7.0385 1.42473 0.930318
upperback -2.76573 1.90451 -1.44445
thorax -6.76658 0.861267 -2.27808
lowerneck -10.7675 -8.16749 -4.6403
upperneck 8.33446 -11.2211 8.26011
head 4.99783 -5.17216 2.41048
rclavicle 1.70334e-014 -7.15625e-015
rhumerus 11.3998 -13.3864 -35.9997
rradius 89.4306
rwrist 3.75487
rhand -23.9748 -42.8906
rfingers 7.12502
rthumb 2.50166 -72.8557
lclavicle 1.70334e-014 -7.15625e-015
lhumerus -46.3881 -3.13722 86.4196
lradius 44.5037
lwrist -5.81135
lhand 1.87586 -23.0436
lfingers 7.12502
lthumb 27.3859 4.98641
rfemur 0 0 0
rtibia 0
rfoot 0 0
rtoes 0
lfemur -5.18523 -6.32758 -11.3285
ltibia 21.7647
lfoot -21.5127 12.5984
ltoes -55.5423
213
root -0.725381 18.7189 5.75762 1.54006 -0.0883544 -2.63208
lowerback 7.07833 1.42001 1.18805
upperback -2.78421 1.92326 -1.45353
thorax -6.79996 0.858435 -2.43672
lowerneck -10.5125 -8.23636 -4.66626
upperneck 7.9429 -11.2731 8.14328
head 4.83206 -5.22155 2.39085
rclavicle 2.70844e-015 8.74653e-015
rhumerus 11.2809 -14.0114 -37.0609
rradius 90.0619
rwrist 4.0416
rhand -24.8284 -43.5911
rfingers 7.12502
rthumb 1.67728 -73.5642
lclavicle 2.70844e-015 8.74653e-015
lhumerus -46.3257 -3.33768 86.5291
lradius 44.6682
lwrist -5.83076
lhand 1.74677 -23.252
lfingers 7.12502
lthumb 27.2624 4.79745
rfemur 0 0 0
rtibia 0
rfoot 0 0
rtoes 0
lfemur -5.30616 -6.49184 -11.2263
ltibia 21.812
lfoot -21.5268 12.6187
ltoes -55.4904
214
root -0.726344 18.72 5.75617 1.6061 0.060769 -2.7065
lowerback 7.06262 1.3736 1.39671
upperback -2.80648 1.88215 -1.44688
thorax -6.8105 0.828935 -2.54197
lowerneck -10.4074 -8.29757 -4.77233
upperneck 7.77318 -11.3289 8.12989
head 4.77094 -5.25953 2.40498
rclavicle -1.86236e-014 7.95139e-015
rhumerus 11.1576 -14.1505 -38.1625
rradius 91.3757
rwrist 4.07988
rhand -25.1993 -44.5644
rfingers 7.12502
rthumb 1.31912 -74.5401
lclavicle -1.86236e-014 7.95139e-015
lhumerus -46.3833 -3.1993 86.5437
lradius 44.892
lwrist -5.58445
lhand 0.634694 -23.6588
lfingers 7.12502
lthumb 26.1982 4.55315
rfemur 0 0 0
rtibia 0
rfoot 0 0
rtoes 0
lfemur -5.44319 -6.63101 -11.1225
ltibia 21.8407
lfoot -21.551 12.6104
ltoes -55.5576
215
root -0.727321 18.721 5.75681 1.7327 0.171744 -2.73564
lowerback 6.94582 1.28038 1.49542
upperback -2.83417 1.76934 -1.39596
thorax -6.77732 0.770735 -2.52675
lowerneck -10.3918 -8.28456 -4.76867
upperneck 7.6852 -11.2875 7.97702
head 4.72874 -5.25026 2.36423
rclavicle -1.48964e-014 -1.59028e-015
rhumerus 11.163 -13.6344 -39.3017
rradius 93.295
rwrist 3.7215
rhand -25.5437 -43.8769
rfingers 7.12502
rthumb 0.986483 -73.8543
lclavicle -1.48964e-014 -1.59028e-015
lhumerus -46.5077 -2.74391 86.5102
lradius 45.0518
lwrist -5.04456
lhand -1.28536 -24.3909
lfingers 7.12502
lthumb 24.3587 4.08108
rfemur 0 0 0
rtibia 0
rfoot 0 0
rtoes 0
lfemur -5.61144 -6.7036 -11.0628
ltibia 21.8429
lfoot -21.5943 12.6256
ltoes -55.7333
216
root -0.727463 18.7216 5.75673 1.87349 0.178987 -2.7558
lowerback 6.8305 1.18438 1.54628
upperback -2.88389 1.65033 -1.30714
thorax -6.77116 0.711858 -2.44497
lowerneck -10.3096 -8.24175 -4.64874
upperneck 7.53417 -11.2062 7.70166
head 4.63975 -5.22811 2.27626
rclavicle -7.20594e-016 1.43125e-014
rhumerus 11.2094 -12.269 -40.3612
rradius 95.6752
rwrist 4.00138
rhand -26.1564 -44.7867
rfingers 7.12502
rthumb 0.394691 -74.7661
lclavicle -7.20594e-016 1.43125e-014
lhumerus -46.6966 -2.09552 86.4118
lradius 45.1615
lwrist -4.47414
lhand -2.67739 -24.9994
lfingers 7.12502
lthumb 23.0236 3.64542
rfemur 0 0 0
rtibia 0
rfoot 0 0
rtoes 0
lfemur -5.74533 -6.70117 -11.0157
ltibia 21.8134
lfoot -21.6741 12.653
ltoes -55.7435
217
root -0.727878 18.7222 5.75638 1.9852 0.0165737 -2.75619
lowerback 6.74658 1.12723 1.56908
upperback -2.9284 1.58119 -1.21254
thorax -6.77564 0.678742 -2.34854
lowerneck -10.2533 -8.22007 -4.49664
upperneck 7.39997 -11.1592 7.42492
head 4.56084 -5.22054 2.17876
rclavicle -5.80203e-015 5.56597e-015
rhumerus 11.4579 -10.6404 -41.5127
rradius 98.037
rwrist 3.99246
rhand -26.6058 -44.0593
rfingers 7.12502
rthumb -0.0393579 -74.039
lclavicle -5.80203e-015 5.56597e-015
lhumerus -46.8847 -1.45267 86.2986
lradius 45.2291
lwrist -4.00042
lhand -3.47408 -25.1954
lfingers 7.12502
lthumb 22.2589 3.54272
rfemur 0 0 0
rtibia 0
rfoot 0 0
rtoes 0
lfemur -5.77936 -6.66831 -11.0087
ltibia 21.7497
lfoot -21.7892 12.7431
ltoes -55.6045
218
root -0.727815 18.7221 5.75604 2.04279 -0.321924 -2.69377
lowerback 6.69246 1.10211 1.54155
upperback -2.94202 1.5497 -1.12771
thorax -6.76337 0.666613 -2.23897
lowerneck -10.2307 -8.16436 -4.36944
upperneck 7.30787 -11.0752 7.23824
head 4.5055 -5.1886 2.11331
rclavicle -2.19781e-014 1.59028e-015
rhumerus 11.9131 -8.54546 -42.6865
rradius 100.201
rwrist 4.55974
rhand -27.4302 -42.5448
rfingers 7.12502
rthumb -0.835547 -72.5229
lclavicle -2.19781e-014 1.59028e-015
lhumerus -47.0206 -0.914268 86.2186
lradius 45.1802
lwrist -3.675
lhand -4.02146 -25.1967
lfingers 7.12502
lthumb 21.7334 3.60322
rfemur 0 0 0
rtibia 0
rfoot 0 0
rtoes 0
lfemur -5.6926 -6.65153 -11.1075
ltibia 21.6574
lfoot -21.9344 12.9788
ltoes -55.5005
